<svg xmlns="http://www.w3.org/2000/svg" viewBox="0 0 58 23" fill="#FFFFFF">
  <path d="M58,21.467V23H50.368V21.467H58ZM39.684,21.467V23H32.053V21.467h7.631ZM45.639,21.467L45.025,23h-.606l-1.22-1.533h2.44ZM28.542,21.467C27.447,22.419,26.003,23,24.391,23H12.211V21.467H28.542ZM10.684,21.467V23H0V21.467H10.684ZM39.684,18.4v1.533H32.053V18.4h7.631ZM46.832,18.4l-.594,1.533H43.821l-.598-1.533h3.609ZM30.068,18.4a7.58,7.58,0,0,1-.641,1.533H12.211V18.4H30.068ZM10.684,18.4v1.533H0V18.4H10.684ZM58,18.4v1.533H50.368V18.4H58ZM54.947,15.333v1.534H50.368V15.333h4.579ZM39.684,15.333v1.534H35.105V15.333h4.579ZM48.029,15.333l-.6,1.534H42.623l-.604-1.534h6.01ZM29.855,15.333a6.76,6.76,0,0,1,.214,1.534H24.421V15.333h5.434ZM19.842,15.333v1.534H15.263V15.333h4.579ZM7.632,15.333v1.534H3.053V15.333H7.632ZM54.947,12.267V13.8H50.368V12.267h4.579ZM39.684,12.267V13.8H35.105V12.267h4.579ZM49.225,12.267l-.597,1.533H41.409l-.592-1.533h8.408ZM27.977,12.267A7.31,7.31,0,0,1,29.305,13.8H15.263V12.267H27.977ZM7.632,12.267V13.8H3.053V12.267H7.632ZM44.599,9.2l.427,1.239.428-1.239H54.947v1.533H50.368V9.324L49.849,10.733H40.188L39.684,9.324v1.409H35.105V9.2H44.599ZM7.632,9.2v1.533H3.053V9.2H7.632ZM29.305,9.2a7.31,7.31,0,0,1-1.328,1.533H15.263V9.2H29.305ZM54.947,6.133V7.667H45.983l.54-1.534h8.424ZM43.534,6.133l.54,1.534H35.105V6.133h8.429ZM30.068,6.133a6.76,6.76,0,0,1-.213,1.534H24.421V6.133h5.647ZM19.842,6.133V7.667H15.263V6.133h4.579ZM7.632,6.133V7.667H3.053V6.133H7.632ZM42.477,3.067l.531,1.533H32.053V3.067H42.477ZM58,3.067V4.6H47.039l.551-1.533H58ZM29.427,3.067A7.58,7.58,0,0,1,30.068,4.6H12.211V3.067H29.427ZM10.684,3.067V4.6H0V3.067H10.684ZM41.406,0l.54,1.533H32.053V0H41.406ZM58,0V1.533H48.119L48.647,0H58ZM24.391,0a7.33,7.33,0,0,1,4.151,1.533H12.211V0H24.391ZM10.684,0V1.533H0V0H10.684Z"/>
</svg>
